HIERARCHY
ROOT Hips
{
	OFFSET 0.000000 0.000000 0.000000
	CHANNELS 6 Xposition Yposition Zposition Zrotation Yrotation Xrotation 
	JOINT LHipJoint
	{
		OFFSET 0.000000 0.000000 0.000000
		CHANNELS 3 Zrotation Yrotation Xrotation
		JOINT LeftUpLeg
		{
			OFFSET 1.363060 -1.794630 0.839290
			CHANNELS 3 Zrotation Yrotation Xrotation
			JOINT LeftLeg
			{
				OFFSET 2.448110 -6.726130 0.000000
				CHANNELS 3 Zrotation Yrotation Xrotation
				JOINT LeftFoot
				{
					OFFSET 2.562200 -7.039590 0.000000
					CHANNELS 3 Zrotation Yrotation Xrotation
					JOINT LeftToeBase
					{
						OFFSET 0.157640 -0.433110 2.322550
						CHANNELS 3 Zrotation Yrotation Xrotation
						End Site
						{
							OFFSET 0.000000 0.000000 0.000000
						}
					}
				}
			}
		}
	}
	JOINT RHipJoint
	{
		OFFSET 0.000000 0.000000 0.000000
		CHANNELS 3 Zrotation Yrotation Xrotation
		JOINT RightUpLeg
		{
			OFFSET -1.305520 -1.794630 0.839290
			CHANNELS 3 Zrotation Yrotation Xrotation
			JOINT RightLeg
			{
				OFFSET -2.542530 -6.985550 0.000000
				CHANNELS 3 Zrotation Yrotation Xrotation
				JOINT RightFoot
				{
					OFFSET -2.568260 -7.056230 0.000000
					CHANNELS 3 Zrotation Yrotation Xrotation
					JOINT RightToeBase
					{
						OFFSET -0.164730 -0.452590 2.363150
						CHANNELS 3 Zrotation Yrotation Xrotation
						End Site
						{
							OFFSET 0.000000 0.000000 0.000000
						}
					}
				}
			}
		}
	}
	JOINT LowerBack
	{
		OFFSET 0.000000 0.000000 0.000000
		CHANNELS 3 Zrotation Yrotation Xrotation
		JOINT Spine
		{
			OFFSET 0.028270 2.035590 -0.193380
			CHANNELS 3 Zrotation Yrotation Xrotation
			JOINT Spine1
			{
				OFFSET 0.056720 2.048850 -0.042750
				CHANNELS 3 Zrotation Yrotation Xrotation
				JOINT Neck
				{
					OFFSET 0.000000 0.000000 0.000000
					CHANNELS 3 Zrotation Yrotation Xrotation
					JOINT Neck1
					{
						OFFSET -0.054170 1.746240 0.172020
						CHANNELS 3 Zrotation Yrotation Xrotation
						JOINT Head
						{
							OFFSET 0.104070 1.761360 -0.123970
							CHANNELS 3 Zrotation Yrotation Xrotation
							End Site
							{
								OFFSET 0.000000 0.000000 0.000000
							}
						}
					}
				}
				JOINT LeftShoulder
				{
					OFFSET 0.000000 0.000000 0.000000
					CHANNELS 3 Zrotation Yrotation Xrotation
					JOINT LeftArm
					{
						OFFSET 3.362410 1.200890 -0.311210
						CHANNELS 3 Zrotation Yrotation Xrotation
						JOINT LeftForeArm
						{
							OFFSET 4.983000 -0.000000 -0.000000
							CHANNELS 3 Zrotation Yrotation Xrotation
							JOINT LeftHand
							{
								OFFSET 3.483560 -0.000000 -0.000000
								CHANNELS 3 Zrotation Yrotation Xrotation
								JOINT LeftFingerBase
								{
									OFFSET 0.000000 0.000000 0.000000
									CHANNELS 3 Zrotation Yrotation Xrotation
									JOINT LeftHandIndex1
									{
										OFFSET 0.715260 -0.000000 -0.000000
										CHANNELS 3 Zrotation Yrotation Xrotation
										End Site
										{
											OFFSET 0.000000 0.000000 0.000000
										}
									}
								}
								JOINT LThumb
								{
									OFFSET 0.000000 0.000000 0.000000
									CHANNELS 3 Zrotation Yrotation Xrotation
									End Site
									{
										OFFSET 0.000000 0.000000 0.000000
									}
								}
							}
						}
					}
				}
				JOINT RightShoulder
				{
					OFFSET 0.000000 0.000000 0.000000
					CHANNELS 3 Zrotation Yrotation Xrotation
					JOINT RightArm
					{
						OFFSET -3.136600 1.374050 -0.404650
						CHANNELS 3 Zrotation Yrotation Xrotation
						JOINT RightForeArm
						{
							OFFSET -5.241900 -0.000000 -0.000000
							CHANNELS 3 Zrotation Yrotation Xrotation
							JOINT RightHand
							{
								OFFSET -3.444170 -0.000000 -0.000000
								CHANNELS 3 Zrotation Yrotation Xrotation
								JOINT RightFingerBase
								{
									OFFSET 0.000000 0.000000 0.000000
									CHANNELS 3 Zrotation Yrotation Xrotation
									JOINT RightHandIndex1
									{
										OFFSET -0.622530 -0.000000 -0.000000
										CHANNELS 3 Zrotation Yrotation Xrotation
										End Site
										{
											OFFSET 0.000000 0.000000 0.000000
										}
									}
								}
								JOINT RThumb
								{
									OFFSET 0.000000 0.000000 0.000000
									CHANNELS 3 Zrotation Yrotation Xrotation
									End Site
									{
										OFFSET 0.000000 0.000000 0.000000
									}
								}
							}
						}
					}
				}
			}
		}
	}
}
MOTION
Frames: 5
Frame Time: 0.008333
0.656915 18.361812 10.120259 -10.531893 0.600755 15.721538 6.335028 4.306916 -2.437995 -17.685260 -43.815712 18.609368 -3.764420 -2.294765 -3.433326 -14.537757 44.423706 -28.810556 0.279800 3.402200 9.400700 -0.434864 -4.274366 -0.918132 25.107195 25.566974 -0.727044 3.571051 -0.950181 3.164929 7.362226 -23.900175 -2.184451 -0.006400 -0.515700 1.417100 0.632996 2.076007 8.201947 16.983057 7.540036 -33.176460 -11.183550 -0.812001 -7.855138 -17.252168 -11.705369 -2.852454 13.244760 -18.569083 24.587079 2.201700 -8.121700 7.185900 -8.518379 -5.946994 1.976008 -88.935466 21.747953 11.422013 15.089948 -17.645706 -3.126745 -1.676507 -0.657517 -5.260336 19.903438 3.461924 1.565700 -7.125000 0.000000 0.000000 -4.114900 34.208000 1.092000 11.250924 6.906359 2.096788 82.692549 -19.174327 6.612756 -14.242238 19.299845 -3.241855 0.503406 2.349484 30.496948 17.634986 -33.600839 -11.018000 7.125000 0.000000 0.000000 55.949700 -56.970500 -20.719900 
0.654598 18.361180 10.121522 -10.679867 0.652568 15.606918 6.453701 4.340578 -2.387239 -17.681432 -43.811670 18.691651 -3.770650 -2.322422 -3.436984 -14.550441 44.430272 -28.832095 0.280700 3.407700 9.415900 -0.304405 -4.285874 -0.821232 25.154927 25.549956 -0.700207 3.569722 -0.950323 3.160065 7.381077 -23.961760 -2.167076 -0.006700 -0.529000 1.453600 0.152283 1.975584 7.945614 18.473154 7.647879 -32.226541 -11.454689 -0.997279 -8.062968 -17.878556 -11.715978 -3.526008 13.478395 -18.473929 24.856297 2.281900 -8.050500 7.344300 -8.704953 -5.907313 1.877198 -89.312691 21.455691 10.837616 15.081511 -17.615238 -3.117642 -1.683872 -0.639194 -5.182031 19.969388 3.325064 1.510700 -7.125000 0.000000 0.000000 -4.045500 34.046600 1.089400 11.106506 6.954456 2.110661 82.162396 -18.747174 7.122551 -14.117114 19.176061 -3.196550 0.507932 2.346081 30.551577 17.611603 -33.625712 -11.007400 7.125000 0.000000 0.000000 55.955200 -56.992000 -20.754200 
0.654914 18.360233 10.121733 -10.823014 0.717130 15.515125 6.565947 4.369892 -2.336741 -17.663931 -43.798641 18.729216 -3.775843 -2.345866 -3.429331 -14.560533 44.424892 -28.824961 0.281600 3.412800 9.430200 -0.176526 -4.296315 -0.723488 25.172784 25.533358 -0.701161 3.569185 -0.944198 3.142808 7.371303 -23.936022 -2.169077 -0.007400 -0.556400 1.528900 -0.281505 1.869196 7.679436 19.928570 7.716672 -31.270444 -11.723472 -1.190452 -8.301242 -18.509263 -11.722272 -4.215985 13.709171 -18.358686 25.151404 2.367200 -7.968200 7.514200 -8.875266 -5.867323 1.777095 -89.721342 21.156675 10.241532 15.085742 -17.598995 -3.112202 -1.688548 -0.643684 -5.082010 19.969167 3.380774 1.535800 -7.125000 0.000000 0.000000 -4.046700 34.113800 1.083100 10.952647 7.002259 2.121476 81.654148 -18.405253 7.729293 -14.061076 19.144377 -3.179563 0.505638 2.346870 30.471580 17.615186 -33.693844 -11.026800 7.125000 0.000000 0.000000 56.035900 -57.035500 -20.862200 
0.654914 18.360549 10.121522 -10.931183 0.755142 15.432816 6.669868 4.399001 -2.285637 -17.693561 -43.823222 18.791975 -3.783425 -2.367335 -3.413044 -14.527268 44.369708 -28.914404 0.285000 3.433500 9.488200 -0.052352 -4.305881 -0.629964 25.147865 25.542518 -0.706487 3.568971 -0.939445 3.126060 7.368894 -23.927308 -2.174286 -0.009200 -0.620400 1.704900 -0.747445 1.751077 7.416368 21.346616 7.737368 -30.320229 -11.934208 -1.391230 -8.569874 -19.080184 -11.717535 -4.930576 13.833173 -18.200725 25.525510 2.431900 -7.869500 7.699400 -9.036788 -5.827794 1.678960 -90.153395 20.880499 9.613071 15.102703 -17.597042 -3.111143 -1.688795 -0.649940 -4.982574 19.935812 3.437362 1.559200 -7.125000 0.000000 0.000000 -4.079000 34.183000 1.084900 10.788574 7.045626 2.131053 81.151606 -18.114012 8.419572 -14.016512 19.132993 -3.167949 0.500516 2.346668 30.345714 17.595887 -33.720437 -11.020900 7.125000 0.000000 0.000000 56.048600 -57.056400 -20.899600 
0.649017 18.366446 10.131948 -10.857991 0.732390 15.448481 6.754479 4.457683 -2.234285 -17.971639 -44.047318 18.950385 -3.791458 -2.390714 -3.431508 -14.569417 44.487907 -29.131688 0.280200 3.404700 9.407500 0.077424 -4.326964 -0.566606 24.994313 26.130737 -0.383202 3.586937 -0.862842 2.919927 7.563904 -24.429156 -2.514589 -0.022100 -0.960700 2.640800 -1.462691 1.567975 6.901638 22.663251 7.652278 -29.386101 -11.955025 -1.588676 -8.648218 -19.576427 -11.727430 -5.689174 13.903618 -18.029602 25.913149 2.477100 -7.763500 7.893800 -9.210471 -5.815523 1.582841 -90.585671 20.576981 8.938548 15.103927 -17.559465 -3.102266 -1.692003 -0.614983 -4.893077 19.994965 3.168876 1.444700 -7.125000 0.000000 0.000000 -4.009300 33.863600 1.097400 10.653413 7.091312 2.143001 80.519991 -17.737512 9.394970 -13.845776 18.967698 -3.112892 0.493645 2.346461 30.031864 17.556391 -33.629900 -10.969200 7.125000 0.000000 0.000000 55.909300 -57.010000 -20.754700 
